<svg viewBox="0 0 45 44" fill="#E2DCC7" xmlns="http://www.w3.org/2000/svg">
<g clip-path="url(#clip0_222_63)">
<path d="M27.8846 25.6679C27.5117 25.7582 25.7521 26.5341 25.6649 26.8409C26.0679 28.4501 26.2424 30.2547 26.7687 31.8187C27.0154 32.5466 27.5056 33.1812 27.653 33.9512C28.6426 34.1888 29.7043 34.2399 30.6006 33.7497C30.5254 31.1269 30.6908 28.426 30.0742 25.8755C29.3915 25.6649 28.5884 25.4995 27.8846 25.6709V25.6679Z" />
<path d="M19.8179 26.5432C19.1592 26.6214 18.6479 27.0725 18.0524 27.3192C19.3487 28.8471 20.5187 30.6698 22.8497 30.2126C24.546 29.8787 25.1055 28.7538 24.0678 27.2951C23.4242 26.9191 23.364 28.6576 22.5369 28.826C21.012 29.1388 20.5037 27.5297 19.8179 26.5402V26.5432Z" />
<path d="M22.8346 25.8875C22.7083 25.689 21.7579 25.9386 21.5233 25.9988C21.3939 26.3447 21.3729 26.8289 21.8301 26.9312C22.6391 27.1146 22.8497 26.5943 22.8346 25.8875Z" />
<path d="M33.4218 24.2242C33.2835 24.0828 32.333 24.7476 32.1105 24.8107C32.4654 26.1221 33.488 25.1837 33.4218 24.2242Z" />
<path d="M6.44254 18.9306C6.5809 18.9126 7.48322 18.6449 7.58849 18.5907C8.14792 18.302 7.29373 17.7757 7.11026 17.6162C5.94326 16.5906 5.81092 15.8146 5.03794 14.5694C4.63189 13.9167 4.1296 13.3302 3.6604 12.7227C3.54009 12.5452 3.62731 12.3196 3.82282 12.2625C4.05441 12.1963 5.4139 12.7528 5.72069 12.8941C8.3735 14.1213 9.10137 15.3725 9.4623 18.2358C9.67284 19.8901 9.76608 21.427 10.1481 23.0813C10.3917 24.128 10.4248 24.2633 11.285 24.916C13.2761 26.4289 14.41 26.6454 16.7861 25.7221C19.3607 24.7205 20.7503 23.5986 23.7851 24.149C24.2392 24.2302 24.7836 24.5641 25.1957 24.5551C25.6048 24.546 26.0198 24.2723 26.3958 24.1791C27.7132 23.8543 28.9463 24.155 30.1374 23.9535C30.8502 23.8332 31.6533 22.9068 32.3451 22.5279C32.8143 22.2692 34.3903 21.8962 34.5317 21.6586C34.5918 21.5564 34.6099 21.3879 34.637 21.2676C34.7512 20.7713 34.8204 19.7547 34.8294 19.2314C34.8415 18.5186 34.7302 17.8298 34.661 17.123L34.0354 18.3531C33.3496 19.2344 32.5376 20.26 31.4397 20.5879C31.7766 19.5412 32.3451 18.5336 32.4323 17.4117C32.4985 16.5635 32.4173 15.2401 32.0804 14.4551C31.8698 13.9619 31.4006 13.7122 31.1149 14.2837C30.751 15.0116 30.5434 16.5816 30.1975 17.4959C30.0381 17.917 28.6907 20.9789 28.4952 21.009L28.1643 20.8014C28.2275 20.1608 28.417 19.4479 28.4591 18.8163C28.5583 17.3185 28.6967 14.7288 28.2365 13.3423C27.9989 12.6234 27.4906 12.2535 26.7236 12.2535C26.6725 13.4896 27.0545 14.6987 27.1357 15.9289C27.1748 16.5214 27.1176 17.15 27.1357 17.7486C27.1507 18.3622 27.4786 20.0555 26.9221 20.4194C26.3777 20.7744 24.7686 21.0661 24.2392 20.642C23.379 19.4028 22.6211 18.0854 21.7549 16.8523C21.5594 16.5726 21.2676 16.3139 21.0721 16.0462C20.7473 15.6041 19.5743 13.7062 19.1472 13.5889C18.7622 13.4836 18.4373 13.8837 18.4674 14.2686C18.5817 15.6552 20.7713 18.5998 21.7248 19.6886C22.2361 20.2721 22.8527 20.8465 23.382 21.421L23.3399 21.6316C23.1595 21.8541 22.1098 21.5112 21.8301 21.397C19.3547 20.3803 17.5501 18.681 16.1154 16.4583C15.5168 15.5319 15.2221 14.0671 13.7603 14.5724C13.9949 16.8733 15.9259 19.1742 17.6343 20.636C18.3411 21.2406 19.2133 21.6346 19.9051 22.2481L19.9472 22.576C19.86 22.6662 18.0644 22.4406 17.7817 22.3865C17.117 22.2632 15.8206 21.9624 15.2161 21.7308C14.7649 21.5594 12.7287 20.1608 12.3467 19.8119C11.8595 19.3667 11.2308 18.0854 10.9872 17.4568C10.3135 15.7214 10.4729 14.034 8.9179 12.7528C6.68617 10.912 3.71755 10.6052 0.917354 11.0263C0.520335 11.0865 -0.0481253 11.1617 -0.00601712 11.676C0.204524 11.9196 0.502288 12.1332 0.69779 12.3828C2.07232 14.1393 3.16713 18.311 5.4891 18.9066C5.74174 18.9727 6.17486 18.9727 6.43352 18.9396L6.44254 18.9306Z" />
<path d="M32.7481 26.6454C31.8488 26.7687 31.8789 26.2935 31.4788 25.7942C31.3044 25.5777 31.136 26.1672 31.136 26.3146C31.136 26.5793 31.4067 27.5628 31.6082 27.7312C31.8277 27.9147 32.7962 27.8064 33.112 27.7553C33.9692 27.6169 34.5136 26.9552 34.8716 26.2123C35.2746 25.3732 35.2415 24.4317 34.9046 23.5715C34.8174 23.5475 34.7422 23.5655 34.661 23.6076C33.9001 24.0077 34.2339 26.4439 32.7481 26.6484V26.6454Z" />
<path d="M30.4051 39.9937C30.0472 39.9336 29.4125 39.9997 29.0245 40.0178C28.1854 40.0599 27.0364 40.12 26.2274 40.2764C25.6228 40.3937 24.3866 40.7456 25.2799 41.4795C25.689 41.8164 27.2019 41.7713 27.7643 41.7292C28.5132 41.669 30.5194 41.0945 30.6006 40.1832C30.6277 40.0539 30.5104 40.0088 30.4051 39.9907V39.9937Z" />
<path d="M14.007 35.8641C13.4836 35.7618 13.0114 35.6866 12.476 35.6957C10.2443 35.7288 6.80347 36.3995 4.70408 37.1755C4.64092 37.1995 4.53264 37.1604 4.59279 37.3078C4.65295 37.4612 5.30863 38.3214 5.44097 38.3244L13.8927 36.0386L14.007 35.8671V35.8641Z" />
<path d="M27.6711 38.5801C28.2155 38.2913 28.5674 36.8837 28.4591 36.2852C26.465 36.4957 26.3747 34.2189 25.8815 32.8744C25.6078 32.1195 25.2228 31.2924 24.6122 30.76C23.8422 31.0247 22.8828 31.5721 22.0617 31.5781C21.5383 31.5841 20.3352 31.2743 19.8299 31.0788C18.1757 30.4352 17.7005 28.6065 16.341 27.629C13.6039 27.0424 10.6173 27.0515 8.34944 25.2138C8.35245 25.6409 8.65021 26.0018 8.88782 26.3266C9.00813 26.489 9.23672 26.7567 9.37808 26.9101C9.57058 27.1146 10.3586 27.7432 10.4127 27.8605C10.524 28.1012 10.4488 28.3989 10.1601 28.438C9.76608 28.4922 8.2562 27.3583 7.78399 27.0996C7.6727 27.0394 7.12229 26.7387 7.06815 26.7838C7.51029 27.7643 7.787 28.5132 8.59908 29.2561C8.90888 29.5389 10.5571 30.6367 10.6052 30.8021C10.7466 31.2803 10.3857 31.2803 10.0217 31.2202L6.82152 29.8366C6.76437 29.8908 7.13432 30.3991 7.20049 30.4893C7.5915 31.0337 8.20206 31.8668 8.6833 32.309C10.6985 34.1677 12.9332 34.7934 15.6221 35.034C16.5214 35.1152 17.6614 34.7212 18.1276 35.7498C18.4644 36.4957 18.0193 36.225 17.523 36.2732C13.6581 36.6581 10.0338 38.2282 6.41247 39.4914L6.94784 40.2434L7.07717 40.2825C8.12386 39.6899 9.3059 39.4192 10.4218 38.9982C11.8595 38.4598 13.3242 37.7169 14.8341 37.383C15.3995 37.2567 18.4795 36.7754 18.8013 36.974C18.8975 37.0311 18.9878 37.3138 19.1321 37.386C15.3334 38.165 11.7873 39.729 8.39456 41.5577C8.3344 41.645 9.00212 42.4179 9.1916 42.3217C11.312 41.1607 13.3573 39.8463 15.6432 39.0162C16.4252 38.7335 18.2659 38.0928 19.0178 38.0116C19.3788 37.9725 19.866 38.1289 19.6284 38.541C16.4763 39.8163 13.5468 41.5307 10.7105 43.3744L10.7616 43.5428C11.0805 43.606 11.4083 44.1053 11.7602 43.9729C12.6294 43.4345 13.3994 42.6164 14.2356 42.066C15.6763 41.1186 19.9713 38.8869 21.5744 38.7515C23.3911 38.5981 26.0349 39.4433 27.6771 38.5741L27.6711 38.5801Z" />
<path d="M43.8466 31.1781C43.6722 30.1013 43.5609 30.0652 43.5609 30.0652L43.4045 30.1254L36.8236 33.1271L36.3002 33.47C37.5996 33.0188 38.8869 32.5346 40.2012 32.1285C41.3923 31.7586 42.6285 31.3976 43.8466 31.1781Z" />
<path d="M37.1273 36.607L38.3365 36.8416C40.2524 37.1484 42.1743 36.9649 44.0993 36.8657C44.1865 36.3604 44.2587 35.8491 44.3008 35.3558L37.1273 36.607Z" />
<path d="M33.7948 37.1695C33.5752 37.0552 33.5752 36.4085 33.7948 36.2912C35.5453 35.7859 37.2627 35.1332 39.0252 34.667C40.0298 34.4024 41.0554 34.2249 42.069 33.9933L44.2316 33.6504L44.1504 32.7301L33.7407 35.6205C33.8279 34.9046 33.5482 32.5165 32.7541 32.2729C32.4413 32.1766 31.8398 32.1857 31.6954 32.5466C31.3916 33.3136 31.4578 34.5257 31.0878 35.3257C30.8292 35.8852 30.0682 36.2371 29.5208 36.4205C29.3825 36.9168 29.2261 37.4131 29.2802 37.9364C30.1645 37.8703 30.8893 37.6206 31.7977 37.6898C34.8505 37.9214 37.4462 39.0794 40.4719 39.4222C41.4675 39.5365 42.4631 39.699 43.4676 39.6749C43.5428 39.3922 43.621 39.0914 43.6992 38.7726C40.2915 38.9079 37.0431 38.0808 33.7978 37.1785L33.7948 37.1695Z" />
<path d="M26.1431 8.26523C27.8245 8.6833 29.1569 9.49839 30.1073 10.2563C30.1735 10.3075 30.2367 10.3586 30.2968 10.4127C30.3419 10.3045 30.4021 10.118 30.4743 9.8112C30.4803 9.79014 30.4833 9.76909 30.4893 9.74503C30.5495 9.46832 30.5976 9.17957 30.6126 8.90888C30.7119 7.17041 29.584 4.70107 28.4621 3.38068C27.7493 2.53852 26.2695 1.17903 25.4002 0.496274C25.0393 0.213548 24.4708 -0.156403 24.0016 0.0751922C23.758 0.195501 23.2798 2.41821 23.2016 2.82726C22.8948 4.43038 22.7113 6.08463 22.9279 7.7088C23.6407 7.73587 24.7536 7.85618 26.1401 8.26823L26.1431 8.26523Z" />
</g>
<defs>
<clipPath id="clip0_222_63">
<rect width="44.3008" height="44" />
</clipPath>
</defs>
</svg>
